# xmcd
#
# Track frame offsets: 
#        150
#        16481
#        37174
#        50288
#        64502
#        84583
#        98891
#        112515
#        139774
#        151535
#        171933
#        192953
#        208724
#        221223
#        233985
#        246271
#
# Disc length: 3513 seconds
#
# Revision: 0
# Processed by: cddbd v1.5.2PL0 Copyright (c) Steve Scherf et al.
# Submitted via: ExactAudioCopy v0.99pb3
#
DISCID=d70db710
DTITLE=Kim Wilson - My Blues Sessions - Kim's Mix - Vol 1
DYEAR=2007
DGENRE=Blues
TTITLE0=Oh, Baby (TK1)
TTITLE1=Oh, Baby (Alt Take TK2)
TTITLE2=Bea's Boogie (TK3)
TTITLE3=Irene (TK5)
TTITLE4=Everything I Do Is Wrong (TK2)
TTITLE5=Tryin' To Make A Livin (TK1)
TTITLE6=Tryin' To Make A Livin (TK2)
TTITLE7=Mambo Crazy (TK1)
TTITLE8=Hop, Skip, Jump (TK4)
TTITLE9=Blue Eyed Baby (TK2)
TTITLE10=Come And Git It (TK1)
TTITLE11=Gumbo Blues (TK2)
TTITLE12=Break It Up (TK5)
TTITLE13=Born Blind (TK2)
TTITLE14=Tell Me Why (TK7)
TTITLE15=Inst. (TK3)
EXTD=
EXTT0=
EXTT1=
EXTT2=
EXTT3=
EXTT4=
EXTT5=
EXTT6=
EXTT7=
EXTT8=
EXTT9=
EXTT10=
EXTT11=
EXTT12=
EXTT13=
EXTT14=
EXTT15=
PLAYORDER=
